<mxfile host="app.diagrams.net" agent="Mozilla/5.0 (Windows NT 10.0; Win64; x64) AppleWebKit/537.36 (KHTML, like Gecko) Chrome/109.0.0.0 Safari/537.36" version="24.7.12">
  <diagram id="C5RBs43oDa-KdzZeNtuy" name="Page-1">
    <mxGraphModel dx="880" dy="484" grid="1" gridSize="10" guides="1" tooltips="1" connect="1" arrows="1" fold="1" page="1" pageScale="1" pageWidth="827" pageHeight="1169" math="0" shadow="0">
      <root>
        <mxCell id="WIyWlLk6GJQsqaUBKTNV-0" />
        <mxCell id="WIyWlLk6GJQsqaUBKTNV-1" parent="WIyWlLk6GJQsqaUBKTNV-0" />
        <mxCell id="WIyWlLk6GJQsqaUBKTNV-2" value="" style="rounded=0;html=1;jettySize=auto;orthogonalLoop=1;fontSize=11;endArrow=block;endFill=0;endSize=8;strokeWidth=1;shadow=0;labelBackgroundColor=none;edgeStyle=orthogonalEdgeStyle;exitX=0.5;exitY=1;exitDx=0;exitDy=0;entryX=0.5;entryY=0;entryDx=0;entryDy=0;" parent="WIyWlLk6GJQsqaUBKTNV-1" source="jMBy1h5kXADgh-5MJF0w-0" target="jMBy1h5kXADgh-5MJF0w-1" edge="1">
          <mxGeometry relative="1" as="geometry">
            <mxPoint x="220" y="120" as="sourcePoint" />
            <mxPoint x="260" y="110" as="targetPoint" />
          </mxGeometry>
        </mxCell>
        <mxCell id="jMBy1h5kXADgh-5MJF0w-0" value="&lt;b&gt;START&lt;/b&gt;" style="ellipse;whiteSpace=wrap;html=1;" vertex="1" parent="WIyWlLk6GJQsqaUBKTNV-1">
          <mxGeometry x="160" y="30" width="90" height="30" as="geometry" />
        </mxCell>
        <mxCell id="jMBy1h5kXADgh-5MJF0w-2" style="edgeStyle=orthogonalEdgeStyle;rounded=0;orthogonalLoop=1;jettySize=auto;html=1;" edge="1" parent="WIyWlLk6GJQsqaUBKTNV-1" source="jMBy1h5kXADgh-5MJF0w-1" target="jMBy1h5kXADgh-5MJF0w-5">
          <mxGeometry relative="1" as="geometry">
            <mxPoint x="204" y="190" as="targetPoint" />
          </mxGeometry>
        </mxCell>
        <mxCell id="jMBy1h5kXADgh-5MJF0w-1" value="&lt;br&gt;&lt;span style=&quot;color: rgb(0, 0, 0); font-family: Helvetica; font-size: 12px; font-style: normal; font-variant-ligatures: normal; font-variant-caps: normal; font-weight: 400; letter-spacing: normal; orphans: 2; text-align: center; text-indent: 0px; text-transform: none; white-space: normal; widows: 2; word-spacing: 0px; -webkit-text-stroke-width: 0px; background-color: rgb(251, 251, 251); text-decoration-thickness: initial; text-decoration-style: initial; text-decoration-color: initial; display: inline !important; float: none;&quot;&gt;INPUT SIZE,ALGORITHM FOR THE ARRAY&lt;/span&gt;&lt;div&gt;&lt;br&gt;&lt;/div&gt;" style="shape=parallelogram;perimeter=parallelogramPerimeter;whiteSpace=wrap;html=1;fixedSize=1;" vertex="1" parent="WIyWlLk6GJQsqaUBKTNV-1">
          <mxGeometry x="57" y="90" width="296" height="60" as="geometry" />
        </mxCell>
        <mxCell id="jMBy1h5kXADgh-5MJF0w-8" value="" style="edgeStyle=orthogonalEdgeStyle;rounded=0;orthogonalLoop=1;jettySize=auto;html=1;" edge="1" parent="WIyWlLk6GJQsqaUBKTNV-1" source="jMBy1h5kXADgh-5MJF0w-5" target="jMBy1h5kXADgh-5MJF0w-7">
          <mxGeometry relative="1" as="geometry" />
        </mxCell>
        <mxCell id="jMBy1h5kXADgh-5MJF0w-5" value="SEND THE DATA TO FLASK BACKEND" style="rounded=0;whiteSpace=wrap;html=1;" vertex="1" parent="WIyWlLk6GJQsqaUBKTNV-1">
          <mxGeometry x="145" y="180" width="120" height="60" as="geometry" />
        </mxCell>
        <mxCell id="jMBy1h5kXADgh-5MJF0w-10" value="" style="edgeStyle=orthogonalEdgeStyle;rounded=0;orthogonalLoop=1;jettySize=auto;html=1;" edge="1" parent="WIyWlLk6GJQsqaUBKTNV-1" source="jMBy1h5kXADgh-5MJF0w-7" target="jMBy1h5kXADgh-5MJF0w-9">
          <mxGeometry relative="1" as="geometry" />
        </mxCell>
        <mxCell id="jMBy1h5kXADgh-5MJF0w-7" value="GENERATE AN ARRAY&amp;nbsp;" style="rounded=0;whiteSpace=wrap;html=1;" vertex="1" parent="WIyWlLk6GJQsqaUBKTNV-1">
          <mxGeometry x="145" y="260" width="120" height="60" as="geometry" />
        </mxCell>
        <mxCell id="jMBy1h5kXADgh-5MJF0w-14" value="" style="edgeStyle=orthogonalEdgeStyle;rounded=0;orthogonalLoop=1;jettySize=auto;html=1;" edge="1" parent="WIyWlLk6GJQsqaUBKTNV-1" source="jMBy1h5kXADgh-5MJF0w-9" target="jMBy1h5kXADgh-5MJF0w-11">
          <mxGeometry relative="1" as="geometry" />
        </mxCell>
        <mxCell id="jMBy1h5kXADgh-5MJF0w-9" value="SORT THE ARRAY WITH THE ALGORITHM MENTIONED USING THE SORTING MODULE" style="rounded=0;whiteSpace=wrap;html=1;" vertex="1" parent="WIyWlLk6GJQsqaUBKTNV-1">
          <mxGeometry x="122.5" y="350" width="165" height="100" as="geometry" />
        </mxCell>
        <mxCell id="jMBy1h5kXADgh-5MJF0w-16" value="" style="edgeStyle=orthogonalEdgeStyle;rounded=0;orthogonalLoop=1;jettySize=auto;html=1;" edge="1" parent="WIyWlLk6GJQsqaUBKTNV-1" source="jMBy1h5kXADgh-5MJF0w-11" target="jMBy1h5kXADgh-5MJF0w-15">
          <mxGeometry relative="1" as="geometry" />
        </mxCell>
        <mxCell id="jMBy1h5kXADgh-5MJF0w-11" value="APPEND A COPY OF ARRAY AT EACH STEP WHILE SORTING" style="rounded=0;whiteSpace=wrap;html=1;" vertex="1" parent="WIyWlLk6GJQsqaUBKTNV-1">
          <mxGeometry x="141.25" y="470" width="127.5" height="80" as="geometry" />
        </mxCell>
        <mxCell id="jMBy1h5kXADgh-5MJF0w-18" value="" style="edgeStyle=orthogonalEdgeStyle;rounded=0;orthogonalLoop=1;jettySize=auto;html=1;" edge="1" parent="WIyWlLk6GJQsqaUBKTNV-1" source="jMBy1h5kXADgh-5MJF0w-15" target="jMBy1h5kXADgh-5MJF0w-17">
          <mxGeometry relative="1" as="geometry" />
        </mxCell>
        <mxCell id="jMBy1h5kXADgh-5MJF0w-15" value="RETURN ARRAY,STEPS" style="rounded=0;whiteSpace=wrap;html=1;" vertex="1" parent="WIyWlLk6GJQsqaUBKTNV-1">
          <mxGeometry x="145" y="580" width="120" height="60" as="geometry" />
        </mxCell>
        <mxCell id="jMBy1h5kXADgh-5MJF0w-21" value="" style="edgeStyle=orthogonalEdgeStyle;rounded=0;orthogonalLoop=1;jettySize=auto;html=1;" edge="1" parent="WIyWlLk6GJQsqaUBKTNV-1" source="jMBy1h5kXADgh-5MJF0w-17" target="jMBy1h5kXADgh-5MJF0w-19">
          <mxGeometry relative="1" as="geometry" />
        </mxCell>
        <mxCell id="jMBy1h5kXADgh-5MJF0w-17" value="USING THE ARRAY&lt;div&gt;DISPLAY THE UNSORTED BARS&lt;/div&gt;" style="rounded=0;whiteSpace=wrap;html=1;" vertex="1" parent="WIyWlLk6GJQsqaUBKTNV-1">
          <mxGeometry x="145" y="670" width="120" height="60" as="geometry" />
        </mxCell>
        <mxCell id="jMBy1h5kXADgh-5MJF0w-24" value="" style="edgeStyle=orthogonalEdgeStyle;rounded=0;orthogonalLoop=1;jettySize=auto;html=1;" edge="1" parent="WIyWlLk6GJQsqaUBKTNV-1" source="jMBy1h5kXADgh-5MJF0w-19" target="jMBy1h5kXADgh-5MJF0w-23">
          <mxGeometry relative="1" as="geometry" />
        </mxCell>
        <mxCell id="jMBy1h5kXADgh-5MJF0w-19" value="USING STEPS SHOW THE SORTING PROCESSS" style="rounded=0;whiteSpace=wrap;html=1;" vertex="1" parent="WIyWlLk6GJQsqaUBKTNV-1">
          <mxGeometry x="109.38" y="760" width="191.25" height="60" as="geometry" />
        </mxCell>
        <mxCell id="jMBy1h5kXADgh-5MJF0w-23" value="&lt;b&gt;STOP&lt;/b&gt;" style="ellipse;whiteSpace=wrap;html=1;" vertex="1" parent="WIyWlLk6GJQsqaUBKTNV-1">
          <mxGeometry x="160" y="850" width="90" height="30" as="geometry" />
        </mxCell>
      </root>
    </mxGraphModel>
  </diagram>
</mxfile>
